<mxfile host="app.diagrams.net" agent="Mozilla/5.0 (Windows NT 10.0; Win64; x64) AppleWebKit/537.36 (KHTML, like Gecko) Chrome/131.0.0.0 Safari/537.36" version="24.9.1" pages="3">
  <diagram name="Практика-1" id="122z7MREErQdRvdp1z4e">
    <mxGraphModel dx="1500" dy="757" grid="1" gridSize="10" guides="1" tooltips="1" connect="1" arrows="1" fold="1" page="1" pageScale="1" pageWidth="827" pageHeight="1169" math="0" shadow="0">
      <root>
        <mxCell id="0" />
        <mxCell id="1" parent="0" />
        <mxCell id="5tgRRDZadM1efnkEL21n-1" value="" style="ellipse;fillColor=strokeColor;" vertex="1" parent="1">
          <mxGeometry x="774" y="80" width="14" height="14" as="geometry" />
        </mxCell>
        <mxCell id="5tgRRDZadM1efnkEL21n-2" value="Idle" style="rounded=1;arcSize=40;strokeWidth=2" vertex="1" parent="1">
          <mxGeometry x="631" y="184" width="43" height="34" as="geometry" />
        </mxCell>
        <mxCell id="5tgRRDZadM1efnkEL21n-3" value="CarSelected" style="rounded=1;arcSize=40;strokeWidth=2" vertex="1" parent="1">
          <mxGeometry x="228" y="308" width="102" height="34" as="geometry" />
        </mxCell>
        <mxCell id="5tgRRDZadM1efnkEL21n-4" value="OrderConfirmed" style="rounded=1;arcSize=40;strokeWidth=2" vertex="1" parent="1">
          <mxGeometry x="20" y="415" width="131" height="34" as="geometry" />
        </mxCell>
        <mxCell id="5tgRRDZadM1efnkEL21n-5" value="CarArrived" style="rounded=1;arcSize=40;strokeWidth=2" vertex="1" parent="1">
          <mxGeometry x="320" y="542" width="92" height="34" as="geometry" />
        </mxCell>
        <mxCell id="5tgRRDZadM1efnkEL21n-6" value="InTrip" style="rounded=1;arcSize=40;strokeWidth=2" vertex="1" parent="1">
          <mxGeometry x="179" y="670" width="56" height="34" as="geometry" />
        </mxCell>
        <mxCell id="5tgRRDZadM1efnkEL21n-7" value="TripCompleted" style="rounded=1;arcSize=40;strokeWidth=2" vertex="1" parent="1">
          <mxGeometry x="500" y="776" width="122" height="34" as="geometry" />
        </mxCell>
        <mxCell id="5tgRRDZadM1efnkEL21n-8" value="TripCancelled" style="rounded=1;arcSize=40;strokeWidth=2" vertex="1" parent="1">
          <mxGeometry x="440" y="670" width="114" height="34" as="geometry" />
        </mxCell>
        <mxCell id="5tgRRDZadM1efnkEL21n-9" value="Ожидание действия пользователя" style="curved=1;startArrow=none;;exitX=-0.02;exitY=0.7;entryX=0.51;entryY=0;rounded=0;" edge="1" parent="1" source="5tgRRDZadM1efnkEL21n-1" target="5tgRRDZadM1efnkEL21n-2">
          <mxGeometry relative="1" as="geometry">
            <Array as="points">
              <mxPoint x="653" y="139" />
            </Array>
          </mxGeometry>
        </mxCell>
        <mxCell id="5tgRRDZadM1efnkEL21n-10" value="Пользователь выбрал автомобиль" style="curved=1;startArrow=none;;exitX=0.01;exitY=0.59;entryX=0.28;entryY=0.01;rounded=0;" edge="1" parent="1" source="5tgRRDZadM1efnkEL21n-2" target="5tgRRDZadM1efnkEL21n-3">
          <mxGeometry relative="1" as="geometry">
            <Array as="points">
              <mxPoint x="200" y="263" />
            </Array>
          </mxGeometry>
        </mxCell>
        <mxCell id="5tgRRDZadM1efnkEL21n-11" value="Отмена заказа" style="curved=1;startArrow=none;;exitX=1;exitY=0.15;entryX=0.01;entryY=0.83;rounded=0;" edge="1" parent="1" source="5tgRRDZadM1efnkEL21n-3" target="5tgRRDZadM1efnkEL21n-2">
          <mxGeometry relative="1" as="geometry">
            <Array as="points">
              <mxPoint x="533" y="263" />
            </Array>
          </mxGeometry>
        </mxCell>
        <mxCell id="5tgRRDZadM1efnkEL21n-12" value="Подтверждение заказа" style="curved=1;startArrow=none;;exitX=0;exitY=0.93;entryX=0.5;entryY=0.01;rounded=0;" edge="1" parent="1" source="5tgRRDZadM1efnkEL21n-3" target="5tgRRDZadM1efnkEL21n-4">
          <mxGeometry relative="1" as="geometry">
            <Array as="points">
              <mxPoint x="86" y="379" />
            </Array>
          </mxGeometry>
        </mxCell>
        <mxCell id="5tgRRDZadM1efnkEL21n-13" value="Отмена заказа" style="curved=1;startArrow=none;;exitX=1;exitY=0.33;entryX=0.43;entryY=1.01;rounded=0;" edge="1" parent="1" source="5tgRRDZadM1efnkEL21n-4" target="5tgRRDZadM1efnkEL21n-2">
          <mxGeometry relative="1" as="geometry">
            <Array as="points">
              <mxPoint x="642" y="379" />
              <mxPoint x="642" y="263" />
            </Array>
          </mxGeometry>
        </mxCell>
        <mxCell id="5tgRRDZadM1efnkEL21n-14" value="Автомобиль в пути -&gt; прибыл" style="curved=1;startArrow=none;;exitX=0.37;exitY=1.02;entryX=0;entryY=0.26;rounded=0;" edge="1" parent="1" source="5tgRRDZadM1efnkEL21n-4" target="5tgRRDZadM1efnkEL21n-5">
          <mxGeometry relative="1" as="geometry">
            <Array as="points">
              <mxPoint x="21" y="495" />
            </Array>
          </mxGeometry>
        </mxCell>
        <mxCell id="5tgRRDZadM1efnkEL21n-15" value="Отмена заказа" style="curved=1;startArrow=none;;exitX=1;exitY=0.27;entryX=0.92;entryY=1.01;rounded=0;" edge="1" parent="1" source="5tgRRDZadM1efnkEL21n-5" target="5tgRRDZadM1efnkEL21n-2">
          <mxGeometry relative="1" as="geometry">
            <Array as="points">
              <mxPoint x="717" y="495" />
              <mxPoint x="717" y="263" />
            </Array>
          </mxGeometry>
        </mxCell>
        <mxCell id="5tgRRDZadM1efnkEL21n-16" value="Пользователь начал поездку" style="curved=1;startArrow=none;;exitX=0.21;exitY=1.02;entryX=0.8;entryY=-0.01;rounded=0;" edge="1" parent="1" source="5tgRRDZadM1efnkEL21n-5" target="5tgRRDZadM1efnkEL21n-6">
          <mxGeometry relative="1" as="geometry">
            <Array as="points">
              <mxPoint x="266" y="625" />
            </Array>
          </mxGeometry>
        </mxCell>
        <mxCell id="5tgRRDZadM1efnkEL21n-17" value="Завершение поездки" style="curved=1;startArrow=none;;exitX=0.51;exitY=1;entryX=0;entryY=0.25;rounded=0;" edge="1" parent="1" source="5tgRRDZadM1efnkEL21n-6" target="5tgRRDZadM1efnkEL21n-7">
          <mxGeometry relative="1" as="geometry">
            <Array as="points">
              <mxPoint x="208" y="740" />
            </Array>
          </mxGeometry>
        </mxCell>
        <mxCell id="5tgRRDZadM1efnkEL21n-18" value="Оплата завершена" style="curved=1;startArrow=none;;exitX=1;exitY=0.13;entryX=1;entryY=0.76;rounded=0;" edge="1" parent="1" source="5tgRRDZadM1efnkEL21n-7" target="5tgRRDZadM1efnkEL21n-2">
          <mxGeometry relative="1" as="geometry">
            <Array as="points">
              <mxPoint x="807" y="740" />
              <mxPoint x="807" y="263" />
            </Array>
          </mxGeometry>
        </mxCell>
        <mxCell id="5tgRRDZadM1efnkEL21n-19" value="Отмена заказа" style="curved=1;startArrow=none;;exitX=0.98;exitY=0.72;entryX=1;entryY=0.23;rounded=0;" edge="1" parent="1" source="5tgRRDZadM1efnkEL21n-1" target="5tgRRDZadM1efnkEL21n-8">
          <mxGeometry relative="1" as="geometry">
            <Array as="points">
              <mxPoint x="898" y="139" />
              <mxPoint x="898" y="625" />
            </Array>
          </mxGeometry>
        </mxCell>
        <mxCell id="5tgRRDZadM1efnkEL21n-20" value="Пользователь отменил заказ" style="curved=1;startArrow=none;;exitX=1;exitY=0.81;entryX=0.64;entryY=-0.01;rounded=0;" edge="1" parent="1" source="5tgRRDZadM1efnkEL21n-3" target="5tgRRDZadM1efnkEL21n-8">
          <mxGeometry relative="1" as="geometry">
            <Array as="points">
              <mxPoint x="555" y="379" />
              <mxPoint x="555" y="625" />
            </Array>
          </mxGeometry>
        </mxCell>
        <mxCell id="5tgRRDZadM1efnkEL21n-21" value="Пользователь отменил заказ" style="curved=1;startArrow=none;;exitX=0.6;exitY=1.02;entryX=0;entryY=0.21;rounded=0;" edge="1" parent="1" source="5tgRRDZadM1efnkEL21n-4" target="5tgRRDZadM1efnkEL21n-8">
          <mxGeometry relative="1" as="geometry">
            <Array as="points">
              <mxPoint x="134" y="495" />
              <mxPoint x="134" y="625" />
            </Array>
          </mxGeometry>
        </mxCell>
        <mxCell id="5tgRRDZadM1efnkEL21n-22" value="Пользователь отменил заказ" style="curved=1;startArrow=none;;exitX=0.74;exitY=1.02;entryX=0.38;entryY=-0.01;rounded=0;" edge="1" parent="1" source="5tgRRDZadM1efnkEL21n-5" target="5tgRRDZadM1efnkEL21n-8">
          <mxGeometry relative="1" as="geometry">
            <Array as="points">
              <mxPoint x="449" y="625" />
            </Array>
          </mxGeometry>
        </mxCell>
      </root>
    </mxGraphModel>
  </diagram>
  <diagram id="IoLuZPN-O6hQnx18xJdv" name="Практика-2">
    <mxGraphModel dx="1615" dy="1984" grid="1" gridSize="10" guides="1" tooltips="1" connect="1" arrows="1" fold="1" page="1" pageScale="1" pageWidth="827" pageHeight="1169" math="0" shadow="0">
      <root>
        <mxCell id="0" />
        <mxCell id="1" parent="0" />
        <mxCell id="61dhC9XVpTyCcVj-cWyG-1" style="edgeStyle=orthogonalEdgeStyle;rounded=0;orthogonalLoop=1;jettySize=auto;html=1;exitX=1;exitY=0.3333333333333333;exitDx=0;exitDy=0;exitPerimeter=0;entryX=0;entryY=0.5;entryDx=0;entryDy=0;curved=1;" edge="1" parent="1" source="61dhC9XVpTyCcVj-cWyG-3" target="61dhC9XVpTyCcVj-cWyG-23">
          <mxGeometry relative="1" as="geometry" />
        </mxCell>
        <mxCell id="61dhC9XVpTyCcVj-cWyG-2" style="edgeStyle=orthogonalEdgeStyle;rounded=0;orthogonalLoop=1;jettySize=auto;html=1;exitX=1;exitY=0.3333333333333333;exitDx=0;exitDy=0;exitPerimeter=0;entryX=0;entryY=0.5;entryDx=0;entryDy=0;curved=1;" edge="1" parent="1" source="61dhC9XVpTyCcVj-cWyG-3" target="61dhC9XVpTyCcVj-cWyG-33">
          <mxGeometry relative="1" as="geometry" />
        </mxCell>
        <mxCell id="61dhC9XVpTyCcVj-cWyG-3" value="Admin" style="shape=umlActor;verticalLabelPosition=bottom;verticalAlign=top;html=1;outlineConnect=0;" vertex="1" parent="1">
          <mxGeometry x="90" y="610" width="30" height="60" as="geometry" />
        </mxCell>
        <mxCell id="61dhC9XVpTyCcVj-cWyG-4" style="edgeStyle=orthogonalEdgeStyle;rounded=0;orthogonalLoop=1;jettySize=auto;html=1;exitX=1;exitY=0.3333333333333333;exitDx=0;exitDy=0;exitPerimeter=0;entryX=0;entryY=0.5;entryDx=0;entryDy=0;curved=1;" edge="1" parent="1" source="61dhC9XVpTyCcVj-cWyG-5" target="61dhC9XVpTyCcVj-cWyG-21">
          <mxGeometry relative="1" as="geometry" />
        </mxCell>
        <mxCell id="61dhC9XVpTyCcVj-cWyG-5" value="User" style="shape=umlActor;verticalLabelPosition=bottom;verticalAlign=top;html=1;outlineConnect=0;" vertex="1" parent="1">
          <mxGeometry x="160" y="120" width="30" height="60" as="geometry" />
        </mxCell>
        <mxCell id="61dhC9XVpTyCcVj-cWyG-6" style="edgeStyle=orthogonalEdgeStyle;rounded=0;orthogonalLoop=1;jettySize=auto;html=1;exitX=1;exitY=0.3333333333333333;exitDx=0;exitDy=0;exitPerimeter=0;entryX=0;entryY=0.5;entryDx=0;entryDy=0;curved=1;" edge="1" parent="1" source="61dhC9XVpTyCcVj-cWyG-8" target="61dhC9XVpTyCcVj-cWyG-11">
          <mxGeometry relative="1" as="geometry" />
        </mxCell>
        <mxCell id="61dhC9XVpTyCcVj-cWyG-7" style="edgeStyle=orthogonalEdgeStyle;rounded=0;orthogonalLoop=1;jettySize=auto;html=1;exitX=1;exitY=0.3333333333333333;exitDx=0;exitDy=0;exitPerimeter=0;entryX=0;entryY=0.5;entryDx=0;entryDy=0;curved=1;" edge="1" parent="1" source="61dhC9XVpTyCcVj-cWyG-8" target="61dhC9XVpTyCcVj-cWyG-12">
          <mxGeometry relative="1" as="geometry" />
        </mxCell>
        <mxCell id="61dhC9XVpTyCcVj-cWyG-8" value="Goste" style="shape=umlActor;verticalLabelPosition=bottom;verticalAlign=top;html=1;outlineConnect=0;" vertex="1" parent="1">
          <mxGeometry x="160" y="10" width="30" height="60" as="geometry" />
        </mxCell>
        <mxCell id="61dhC9XVpTyCcVj-cWyG-9" style="edgeStyle=orthogonalEdgeStyle;rounded=0;orthogonalLoop=1;jettySize=auto;html=1;exitX=0;exitY=0.5;exitDx=0;exitDy=0;entryX=1;entryY=0.5;entryDx=0;entryDy=0;curved=1;dashed=1;dashPattern=8 8;" edge="1" parent="1" source="61dhC9XVpTyCcVj-cWyG-11" target="61dhC9XVpTyCcVj-cWyG-21">
          <mxGeometry relative="1" as="geometry" />
        </mxCell>
        <mxCell id="61dhC9XVpTyCcVj-cWyG-10" value="include" style="edgeLabel;html=1;align=center;verticalAlign=middle;resizable=0;points=[];" vertex="1" connectable="0" parent="61dhC9XVpTyCcVj-cWyG-9">
          <mxGeometry x="-0.0571" y="1" relative="1" as="geometry">
            <mxPoint as="offset" />
          </mxGeometry>
        </mxCell>
        <mxCell id="61dhC9XVpTyCcVj-cWyG-11" value="просмотр" style="ellipse;whiteSpace=wrap;html=1;" vertex="1" parent="1">
          <mxGeometry x="580" y="260" width="140" height="70" as="geometry" />
        </mxCell>
        <mxCell id="61dhC9XVpTyCcVj-cWyG-12" value="Регестриция" style="ellipse;whiteSpace=wrap;html=1;" vertex="1" parent="1">
          <mxGeometry x="370" y="-50" width="140" height="70" as="geometry" />
        </mxCell>
        <mxCell id="61dhC9XVpTyCcVj-cWyG-13" style="edgeStyle=orthogonalEdgeStyle;rounded=0;orthogonalLoop=1;jettySize=auto;html=1;exitX=0;exitY=0.5;exitDx=0;exitDy=0;entryX=1;entryY=0.5;entryDx=0;entryDy=0;curved=1;dashed=1;dashPattern=8 8;" edge="1" parent="1" source="61dhC9XVpTyCcVj-cWyG-17" target="61dhC9XVpTyCcVj-cWyG-21">
          <mxGeometry relative="1" as="geometry" />
        </mxCell>
        <mxCell id="61dhC9XVpTyCcVj-cWyG-14" value="include" style="edgeLabel;html=1;align=center;verticalAlign=middle;resizable=0;points=[];" vertex="1" connectable="0" parent="61dhC9XVpTyCcVj-cWyG-13">
          <mxGeometry x="0.1399" y="4" relative="1" as="geometry">
            <mxPoint as="offset" />
          </mxGeometry>
        </mxCell>
        <mxCell id="61dhC9XVpTyCcVj-cWyG-15" style="edgeStyle=orthogonalEdgeStyle;rounded=0;orthogonalLoop=1;jettySize=auto;html=1;exitX=1;exitY=0.5;exitDx=0;exitDy=0;entryX=0;entryY=0.5;entryDx=0;entryDy=0;startArrow=classic;startFill=1;endArrow=none;endFill=0;dashed=1;dashPattern=8 8;curved=1;" edge="1" parent="1" source="61dhC9XVpTyCcVj-cWyG-17" target="61dhC9XVpTyCcVj-cWyG-22">
          <mxGeometry relative="1" as="geometry" />
        </mxCell>
        <mxCell id="61dhC9XVpTyCcVj-cWyG-16" value="extend" style="edgeLabel;html=1;align=center;verticalAlign=middle;resizable=0;points=[];" vertex="1" connectable="0" parent="61dhC9XVpTyCcVj-cWyG-15">
          <mxGeometry x="-0.0991" relative="1" as="geometry">
            <mxPoint as="offset" />
          </mxGeometry>
        </mxCell>
        <mxCell id="61dhC9XVpTyCcVj-cWyG-17" value="Bronyrovanie&amp;nbsp;&lt;div&gt;meropryate&lt;/div&gt;" style="ellipse;whiteSpace=wrap;html=1;" vertex="1" parent="1">
          <mxGeometry x="580" y="390" width="140" height="70" as="geometry" />
        </mxCell>
        <mxCell id="61dhC9XVpTyCcVj-cWyG-18" style="edgeStyle=orthogonalEdgeStyle;rounded=0;orthogonalLoop=1;jettySize=auto;html=1;exitX=0;exitY=0.5;exitDx=0;exitDy=0;entryX=1;entryY=0.5;entryDx=0;entryDy=0;curved=1;dashed=1;dashPattern=8 8;" edge="1" parent="1" source="61dhC9XVpTyCcVj-cWyG-20" target="61dhC9XVpTyCcVj-cWyG-17">
          <mxGeometry relative="1" as="geometry" />
        </mxCell>
        <mxCell id="61dhC9XVpTyCcVj-cWyG-19" value="extend" style="edgeLabel;html=1;align=center;verticalAlign=middle;resizable=0;points=[];" vertex="1" connectable="0" parent="61dhC9XVpTyCcVj-cWyG-18">
          <mxGeometry x="-0.302" y="10" relative="1" as="geometry">
            <mxPoint as="offset" />
          </mxGeometry>
        </mxCell>
        <mxCell id="61dhC9XVpTyCcVj-cWyG-20" value="Otmena brony" style="ellipse;whiteSpace=wrap;html=1;" vertex="1" parent="1">
          <mxGeometry x="850" y="280" width="140" height="70" as="geometry" />
        </mxCell>
        <mxCell id="61dhC9XVpTyCcVj-cWyG-21" value="Zakaz meropryatia&amp;nbsp;" style="ellipse;whiteSpace=wrap;html=1;" vertex="1" parent="1">
          <mxGeometry x="330" y="330" width="140" height="70" as="geometry" />
        </mxCell>
        <mxCell id="61dhC9XVpTyCcVj-cWyG-22" value="Vznos" style="ellipse;whiteSpace=wrap;html=1;" vertex="1" parent="1">
          <mxGeometry x="827" y="500" width="140" height="70" as="geometry" />
        </mxCell>
        <mxCell id="61dhC9XVpTyCcVj-cWyG-23" value="Upravlate Bronyronirovanyev" style="ellipse;whiteSpace=wrap;html=1;" vertex="1" parent="1">
          <mxGeometry x="300" y="670" width="140" height="70" as="geometry" />
        </mxCell>
        <mxCell id="61dhC9XVpTyCcVj-cWyG-24" style="edgeStyle=orthogonalEdgeStyle;rounded=0;orthogonalLoop=1;jettySize=auto;html=1;exitX=0;exitY=0.5;exitDx=0;exitDy=0;entryX=1;entryY=0.5;entryDx=0;entryDy=0;curved=1;dashed=1;dashPattern=8 8;" edge="1" parent="1" source="61dhC9XVpTyCcVj-cWyG-26" target="61dhC9XVpTyCcVj-cWyG-23">
          <mxGeometry relative="1" as="geometry" />
        </mxCell>
        <mxCell id="61dhC9XVpTyCcVj-cWyG-25" value="include" style="edgeLabel;html=1;align=center;verticalAlign=middle;resizable=0;points=[];" vertex="1" connectable="0" parent="61dhC9XVpTyCcVj-cWyG-24">
          <mxGeometry x="-0.4633" y="11" relative="1" as="geometry">
            <mxPoint as="offset" />
          </mxGeometry>
        </mxCell>
        <mxCell id="61dhC9XVpTyCcVj-cWyG-26" value="Udalyte" style="ellipse;whiteSpace=wrap;html=1;" vertex="1" parent="1">
          <mxGeometry x="650" y="585" width="140" height="70" as="geometry" />
        </mxCell>
        <mxCell id="61dhC9XVpTyCcVj-cWyG-27" style="edgeStyle=orthogonalEdgeStyle;rounded=0;orthogonalLoop=1;jettySize=auto;html=1;exitX=0;exitY=0.5;exitDx=0;exitDy=0;entryX=1;entryY=0.5;entryDx=0;entryDy=0;curved=1;dashed=1;dashPattern=8 8;" edge="1" parent="1" source="61dhC9XVpTyCcVj-cWyG-29" target="61dhC9XVpTyCcVj-cWyG-23">
          <mxGeometry relative="1" as="geometry">
            <mxPoint x="470" y="770" as="targetPoint" />
          </mxGeometry>
        </mxCell>
        <mxCell id="61dhC9XVpTyCcVj-cWyG-28" value="include" style="edgeLabel;html=1;align=center;verticalAlign=middle;resizable=0;points=[];" vertex="1" connectable="0" parent="61dhC9XVpTyCcVj-cWyG-27">
          <mxGeometry x="0.0215" y="1" relative="1" as="geometry">
            <mxPoint as="offset" />
          </mxGeometry>
        </mxCell>
        <mxCell id="61dhC9XVpTyCcVj-cWyG-29" value="Dobavlate" style="ellipse;whiteSpace=wrap;html=1;" vertex="1" parent="1">
          <mxGeometry x="640" y="740" width="140" height="70" as="geometry" />
        </mxCell>
        <mxCell id="61dhC9XVpTyCcVj-cWyG-30" style="edgeStyle=orthogonalEdgeStyle;rounded=0;orthogonalLoop=1;jettySize=auto;html=1;exitX=0;exitY=0.5;exitDx=0;exitDy=0;entryX=1;entryY=0.5;entryDx=0;entryDy=0;curved=1;dashed=1;dashPattern=8 8;" edge="1" parent="1" source="61dhC9XVpTyCcVj-cWyG-32" target="61dhC9XVpTyCcVj-cWyG-23">
          <mxGeometry relative="1" as="geometry" />
        </mxCell>
        <mxCell id="61dhC9XVpTyCcVj-cWyG-31" value="include" style="edgeLabel;html=1;align=center;verticalAlign=middle;resizable=0;points=[];" vertex="1" connectable="0" parent="61dhC9XVpTyCcVj-cWyG-30">
          <mxGeometry x="-0.1897" y="-6" relative="1" as="geometry">
            <mxPoint as="offset" />
          </mxGeometry>
        </mxCell>
        <mxCell id="61dhC9XVpTyCcVj-cWyG-32" value="Redaktyrovate" style="ellipse;whiteSpace=wrap;html=1;" vertex="1" parent="1">
          <mxGeometry x="610" y="865" width="140" height="70" as="geometry" />
        </mxCell>
        <mxCell id="61dhC9XVpTyCcVj-cWyG-33" value="Prosmotr vse bronyrovanya" style="ellipse;whiteSpace=wrap;html=1;" vertex="1" parent="1">
          <mxGeometry x="300" y="910" width="140" height="70" as="geometry" />
        </mxCell>
      </root>
    </mxGraphModel>
  </diagram>
  <diagram id="pqnJcKJa5c2M1fpm_9LS" name="Практика-3">
    <mxGraphModel dx="1500" dy="757" grid="1" gridSize="10" guides="1" tooltips="1" connect="1" arrows="1" fold="1" page="1" pageScale="1" pageWidth="827" pageHeight="1169" math="0" shadow="0">
      <root>
        <mxCell id="0" />
        <mxCell id="1" parent="0" />
        <mxCell id="1292Pr8XjY_sCcfxNo0R-1" value="" style="ellipse;fillColor=strokeColor;" vertex="1" parent="1">
          <mxGeometry x="92" y="30" width="14" height="14" as="geometry" />
        </mxCell>
        <mxCell id="1292Pr8XjY_sCcfxNo0R-2" value="SelectProducts" style="rounded=1;arcSize=40;strokeWidth=2" vertex="1" parent="1">
          <mxGeometry x="38" y="127" width="122" height="34" as="geometry" />
        </mxCell>
        <mxCell id="1292Pr8XjY_sCcfxNo0R-3" value="Checkout" style="rounded=1;arcSize=40;strokeWidth=2" vertex="1" parent="1">
          <mxGeometry x="57" y="234" width="83" height="34" as="geometry" />
        </mxCell>
        <mxCell id="1292Pr8XjY_sCcfxNo0R-4" value="Payment" style="rounded=1;arcSize=40;strokeWidth=2" vertex="1" parent="1">
          <mxGeometry x="60" y="340" width="78" height="34" as="geometry" />
        </mxCell>
        <mxCell id="1292Pr8XjY_sCcfxNo0R-5" value="PaymentStatus" style="rounded=1;arcSize=40;strokeWidth=2" vertex="1" parent="1">
          <mxGeometry x="38" y="447" width="122" height="34" as="geometry" />
        </mxCell>
        <mxCell id="1292Pr8XjY_sCcfxNo0R-6" value="|Да|" style="rounded=1;arcSize=40;strokeWidth=2" vertex="1" parent="1">
          <mxGeometry x="20" y="532" width="52" height="34" as="geometry" />
        </mxCell>
        <mxCell id="1292Pr8XjY_sCcfxNo0R-7" value="Подтверждение оплаты" style="rounded=1;arcSize=40;strokeWidth=2" vertex="1" parent="1">
          <mxGeometry x="359" y="102" width="191" height="34" as="geometry" />
        </mxCell>
        <mxCell id="1292Pr8XjY_sCcfxNo0R-8" value="|Нет|" style="rounded=1;arcSize=40;strokeWidth=2" vertex="1" parent="1">
          <mxGeometry x="122" y="532" width="59" height="34" as="geometry" />
        </mxCell>
        <mxCell id="1292Pr8XjY_sCcfxNo0R-9" value="Отмена заказа" style="rounded=1;arcSize=40;strokeWidth=2" vertex="1" parent="1">
          <mxGeometry x="240" y="316" width="123" height="34" as="geometry" />
        </mxCell>
        <mxCell id="1292Pr8XjY_sCcfxNo0R-10" value="OrderProcessing" style="rounded=1;arcSize=40;strokeWidth=2" vertex="1" parent="1">
          <mxGeometry x="389" y="209" width="131" height="34" as="geometry" />
        </mxCell>
        <mxCell id="1292Pr8XjY_sCcfxNo0R-11" value="Shipment" style="rounded=1;arcSize=40;strokeWidth=2" vertex="1" parent="1">
          <mxGeometry x="413" y="316" width="83" height="34" as="geometry" />
        </mxCell>
        <mxCell id="1292Pr8XjY_sCcfxNo0R-12" value="" style="ellipse;shape=endState;fillColor=strokeColor;" vertex="1" parent="1">
          <mxGeometry x="371" y="433" width="14" height="14" as="geometry" />
        </mxCell>
        <mxCell id="1292Pr8XjY_sCcfxNo0R-13" value="Выбор товаров" style="curved=1;startArrow=none;;exitX=0.49;exitY=1.01;entryX=0.5;entryY=-0.01;rounded=0;" edge="1" parent="1" source="1292Pr8XjY_sCcfxNo0R-1" target="1292Pr8XjY_sCcfxNo0R-2">
          <mxGeometry relative="1" as="geometry">
            <Array as="points" />
          </mxGeometry>
        </mxCell>
        <mxCell id="1292Pr8XjY_sCcfxNo0R-14" value="Оформление заказа" style="curved=1;startArrow=none;;exitX=0.5;exitY=1.01;entryX=0.5;entryY=-0.01;rounded=0;" edge="1" parent="1" source="1292Pr8XjY_sCcfxNo0R-2" target="1292Pr8XjY_sCcfxNo0R-3">
          <mxGeometry relative="1" as="geometry">
            <Array as="points" />
          </mxGeometry>
        </mxCell>
        <mxCell id="1292Pr8XjY_sCcfxNo0R-15" value="Оплата" style="curved=1;startArrow=none;;exitX=0.5;exitY=1;entryX=0.5;entryY=0.01;rounded=0;" edge="1" parent="1" source="1292Pr8XjY_sCcfxNo0R-3" target="1292Pr8XjY_sCcfxNo0R-4">
          <mxGeometry relative="1" as="geometry">
            <Array as="points" />
          </mxGeometry>
        </mxCell>
        <mxCell id="1292Pr8XjY_sCcfxNo0R-16" value="Оплата прошла?" style="curved=1;startArrow=none;;exitX=0.5;exitY=1.02;entryX=0.5;entryY=0.01;rounded=0;" edge="1" parent="1" source="1292Pr8XjY_sCcfxNo0R-4" target="1292Pr8XjY_sCcfxNo0R-5">
          <mxGeometry relative="1" as="geometry">
            <Array as="points" />
          </mxGeometry>
        </mxCell>
        <mxCell id="1292Pr8XjY_sCcfxNo0R-17" value="" style="curved=1;startArrow=none;;exitX=0.32;exitY=1.02;entryX=0.5;entryY=-0.01;rounded=0;" edge="1" parent="1" source="1292Pr8XjY_sCcfxNo0R-5" target="1292Pr8XjY_sCcfxNo0R-6">
          <mxGeometry relative="1" as="geometry">
            <Array as="points">
              <mxPoint x="46" y="507" />
            </Array>
          </mxGeometry>
        </mxCell>
        <mxCell id="1292Pr8XjY_sCcfxNo0R-18" value="" style="curved=1;startArrow=none;;exitX=0.68;exitY=1.02;entryX=0.5;entryY=-0.01;rounded=0;" edge="1" parent="1" source="1292Pr8XjY_sCcfxNo0R-5" target="1292Pr8XjY_sCcfxNo0R-8">
          <mxGeometry relative="1" as="geometry">
            <Array as="points">
              <mxPoint x="152" y="507" />
            </Array>
          </mxGeometry>
        </mxCell>
        <mxCell id="1292Pr8XjY_sCcfxNo0R-19" value="Обработка заказа" style="curved=1;startArrow=none;;exitX=0.5;exitY=1.01;entryX=0.5;entryY=-0.01;rounded=0;" edge="1" parent="1" source="1292Pr8XjY_sCcfxNo0R-7" target="1292Pr8XjY_sCcfxNo0R-10">
          <mxGeometry relative="1" as="geometry">
            <Array as="points" />
          </mxGeometry>
        </mxCell>
        <mxCell id="1292Pr8XjY_sCcfxNo0R-20" value="Отправка заказа" style="curved=1;startArrow=none;;exitX=0.5;exitY=1.01;entryX=0.5;entryY=-0.01;rounded=0;" edge="1" parent="1" source="1292Pr8XjY_sCcfxNo0R-10" target="1292Pr8XjY_sCcfxNo0R-11">
          <mxGeometry relative="1" as="geometry">
            <Array as="points" />
          </mxGeometry>
        </mxCell>
        <mxCell id="1292Pr8XjY_sCcfxNo0R-21" value="Конец" style="curved=1;startArrow=none;;exitX=0.5;exitY=1;entryX=0.02;entryY=0.12;rounded=0;" edge="1" parent="1" source="1292Pr8XjY_sCcfxNo0R-9" target="1292Pr8XjY_sCcfxNo0R-12">
          <mxGeometry relative="1" as="geometry">
            <Array as="points">
              <mxPoint x="302" y="386" />
            </Array>
          </mxGeometry>
        </mxCell>
        <mxCell id="1292Pr8XjY_sCcfxNo0R-22" value="Конец" style="curved=1;startArrow=none;;exitX=0.5;exitY=1;entryX=1.02;entryY=0.12;rounded=0;" edge="1" parent="1" source="1292Pr8XjY_sCcfxNo0R-11" target="1292Pr8XjY_sCcfxNo0R-12">
          <mxGeometry relative="1" as="geometry">
            <Array as="points">
              <mxPoint x="455" y="386" />
            </Array>
          </mxGeometry>
        </mxCell>
      </root>
    </mxGraphModel>
  </diagram>
</mxfile>
